<?xml version="1.0" standalone="no"?>
<!DOCTYPE svg PUBLIC "-//W3C//DTD SVG 1.1//EN" "http://www.w3.org/Graphics/SVG/1.1/DTD/svg11.dtd">
<svg version="1.1" width="1200" height="886" onload="init(evt)" viewBox="0 0 1200 886" xmlns="http://www.w3.org/2000/svg" xmlns:xlink="http://www.w3.org/1999/xlink">
<!-- Flame graph stack visualization. See https://github.com/brendangregg/FlameGraph for latest version, and http://www.brendangregg.com/flamegraphs.html for examples. -->
<!-- NOTES:  -->
<defs>
	<linearGradient id="background" y1="0" y2="1" x1="0" x2="0" >
		<stop stop-color="#eeeeee" offset="5%" />
		<stop stop-color="#eeeeb0" offset="95%" />
	</linearGradient>
</defs>
<style type="text/css">
	text { font-family:Verdana; font-size:12px; fill:rgb(0,0,0); }
	#search, #ignorecase { opacity:0.1; cursor:pointer; }
	#search:hover, #search.show, #ignorecase:hover, #ignorecase.show { opacity:1; }
	#subtitle { text-anchor:middle; font-color:rgb(160,160,160); }
	#title { text-anchor:middle; font-size:17px}
	#unzoom { cursor:pointer; }
	#frames > *:hover { stroke:black; stroke-width:0.5; cursor:pointer; }
	.hide { display:none; }
	.parent { opacity:0.5; }
</style>
<script type="text/ecmascript">
<![CDATA[
	"use strict";
	var details, searchbtn, unzoombtn, matchedtxt, svg, searching, currentSearchTerm, ignorecase, ignorecaseBtn;
	function init(evt) {
		details = document.getElementById("details").firstChild;
		searchbtn = document.getElementById("search");
		ignorecaseBtn = document.getElementById("ignorecase");
		unzoombtn = document.getElementById("unzoom");
		matchedtxt = document.getElementById("matched");
		svg = document.getElementsByTagName("svg")[0];
		searching = 0;
		currentSearchTerm = null;

		// use GET parameters to restore a flamegraphs state.
		var params = get_params();
		if (params.x && params.y)
			zoom(find_group(document.querySelector('[x="' + params.x + '"][y="' + params.y + '"]')));
                if (params.s) search(params.s);
	}

	// event listeners
	window.addEventListener("click", function(e) {
		var target = find_group(e.target);
		if (target) {
			if (target.nodeName == "a") {
				if (e.ctrlKey === false) return;
				e.preventDefault();
			}
			if (target.classList.contains("parent")) unzoom(true);
			zoom(target);
			if (!document.querySelector('.parent')) {
				// we have basically done a clearzoom so clear the url
				var params = get_params();
				if (params.x) delete params.x;
				if (params.y) delete params.y;
				history.replaceState(null, null, parse_params(params));
				unzoombtn.classList.add("hide");
				return;
			}

			// set parameters for zoom state
			var el = target.querySelector("rect");
			if (el && el.attributes && el.attributes.y && el.attributes._orig_x) {
				var params = get_params()
				params.x = el.attributes._orig_x.value;
				params.y = el.attributes.y.value;
				history.replaceState(null, null, parse_params(params));
			}
		}
		else if (e.target.id == "unzoom") clearzoom();
		else if (e.target.id == "search") search_prompt();
		else if (e.target.id == "ignorecase") toggle_ignorecase();
	}, false)

	// mouse-over for info
	// show
	window.addEventListener("mouseover", function(e) {
		var target = find_group(e.target);
		if (target) details.nodeValue = "Function: " + g_to_text(target);
	}, false)

	// clear
	window.addEventListener("mouseout", function(e) {
		var target = find_group(e.target);
		if (target) details.nodeValue = ' ';
	}, false)

	// ctrl-F for search
	// ctrl-I to toggle case-sensitive search
	window.addEventListener("keydown",function (e) {
		if (e.keyCode === 114 || (e.ctrlKey && e.keyCode === 70)) {
			e.preventDefault();
			search_prompt();
		}
		else if (e.ctrlKey && e.keyCode === 73) {
			e.preventDefault();
			toggle_ignorecase();
		}
	}, false)

	// functions
	function get_params() {
		var params = {};
		var paramsarr = window.location.search.substr(1).split('&');
		for (var i = 0; i < paramsarr.length; ++i) {
			var tmp = paramsarr[i].split("=");
			if (!tmp[0] || !tmp[1]) continue;
			params[tmp[0]]  = decodeURIComponent(tmp[1]);
		}
		return params;
	}
	function parse_params(params) {
		var uri = "?";
		for (var key in params) {
			uri += key + '=' + encodeURIComponent(params[key]) + '&';
		}
		if (uri.slice(-1) == "&")
			uri = uri.substring(0, uri.length - 1);
		if (uri == '?')
			uri = window.location.href.split('?')[0];
		return uri;
	}
	function find_child(node, selector) {
		var children = node.querySelectorAll(selector);
		if (children.length) return children[0];
	}
	function find_group(node) {
		var parent = node.parentElement;
		if (!parent) return;
		if (parent.id == "frames") return node;
		return find_group(parent);
	}
	function orig_save(e, attr, val) {
		if (e.attributes["_orig_" + attr] != undefined) return;
		if (e.attributes[attr] == undefined) return;
		if (val == undefined) val = e.attributes[attr].value;
		e.setAttribute("_orig_" + attr, val);
	}
	function orig_load(e, attr) {
		if (e.attributes["_orig_"+attr] == undefined) return;
		e.attributes[attr].value = e.attributes["_orig_" + attr].value;
		e.removeAttribute("_orig_"+attr);
	}
	function g_to_text(e) {
		var text = find_child(e, "title").firstChild.nodeValue;
		return (text)
	}
	function g_to_func(e) {
		var func = g_to_text(e);
		// if there's any manipulation we want to do to the function
		// name before it's searched, do it here before returning.
		return (func);
	}
	function update_text(e) {
		var r = find_child(e, "rect");
		var t = find_child(e, "text");
		var w = parseFloat(r.attributes.width.value) -3;
		var txt = find_child(e, "title").textContent.replace(/\([^(]*\)$/,"");
		t.attributes.x.value = parseFloat(r.attributes.x.value) + 3;

		// Smaller than this size won't fit anything
		if (w < 2 * 12 * 0.59) {
			t.textContent = "";
			return;
		}

		t.textContent = txt;
		var sl = t.getSubStringLength(0, txt.length);
		// check if only whitespace or if we can fit the entire string into width w
		if (/^ *$/.test(txt) || sl < w)
			return;

		// this isn't perfect, but gives a good starting point
		// and avoids calling getSubStringLength too often
		var start = Math.floor((w/sl) * txt.length);
		for (var x = start; x > 0; x = x-2) {
			if (t.getSubStringLength(0, x + 2) <= w) {
				t.textContent = txt.substring(0, x) + "..";
				return;
			}
		}
		t.textContent = "";
	}

	// zoom
	function zoom_reset(e) {
		if (e.attributes != undefined) {
			orig_load(e, "x");
			orig_load(e, "width");
		}
		if (e.childNodes == undefined) return;
		for (var i = 0, c = e.childNodes; i < c.length; i++) {
			zoom_reset(c[i]);
		}
	}
	function zoom_child(e, x, ratio) {
		if (e.attributes != undefined) {
			if (e.attributes.x != undefined) {
				orig_save(e, "x");
				e.attributes.x.value = (parseFloat(e.attributes.x.value) - x - 10) * ratio + 10;
				if (e.tagName == "text")
					e.attributes.x.value = find_child(e.parentNode, "rect[x]").attributes.x.value + 3;
			}
			if (e.attributes.width != undefined) {
				orig_save(e, "width");
				e.attributes.width.value = parseFloat(e.attributes.width.value) * ratio;
			}
		}

		if (e.childNodes == undefined) return;
		for (var i = 0, c = e.childNodes; i < c.length; i++) {
			zoom_child(c[i], x - 10, ratio);
		}
	}
	function zoom_parent(e) {
		if (e.attributes) {
			if (e.attributes.x != undefined) {
				orig_save(e, "x");
				e.attributes.x.value = 10;
			}
			if (e.attributes.width != undefined) {
				orig_save(e, "width");
				e.attributes.width.value = parseInt(svg.width.baseVal.value) - (10 * 2);
			}
		}
		if (e.childNodes == undefined) return;
		for (var i = 0, c = e.childNodes; i < c.length; i++) {
			zoom_parent(c[i]);
		}
	}
	function zoom(node) {
		var attr = find_child(node, "rect").attributes;
		var width = parseFloat(attr.width.value);
		var xmin = parseFloat(attr.x.value);
		var xmax = parseFloat(xmin + width);
		var ymin = parseFloat(attr.y.value);
		var ratio = (svg.width.baseVal.value - 2 * 10) / width;

		// XXX: Workaround for JavaScript float issues (fix me)
		var fudge = 0.0001;

		unzoombtn.classList.remove("hide");

		var el = document.getElementById("frames").children;
		for (var i = 0; i < el.length; i++) {
			var e = el[i];
			var a = find_child(e, "rect").attributes;
			var ex = parseFloat(a.x.value);
			var ew = parseFloat(a.width.value);
			var upstack;
			// Is it an ancestor
			if (0 == 0) {
				upstack = parseFloat(a.y.value) > ymin;
			} else {
				upstack = parseFloat(a.y.value) < ymin;
			}
			if (upstack) {
				// Direct ancestor
				if (ex <= xmin && (ex+ew+fudge) >= xmax) {
					e.classList.add("parent");
					zoom_parent(e);
					update_text(e);
				}
				// not in current path
				else
					e.classList.add("hide");
			}
			// Children maybe
			else {
				// no common path
				if (ex < xmin || ex + fudge >= xmax) {
					e.classList.add("hide");
				}
				else {
					zoom_child(e, xmin, ratio);
					update_text(e);
				}
			}
		}
		search();
	}
	function unzoom(dont_update_text) {
		unzoombtn.classList.add("hide");
		var el = document.getElementById("frames").children;
		for(var i = 0; i < el.length; i++) {
			el[i].classList.remove("parent");
			el[i].classList.remove("hide");
			zoom_reset(el[i]);
			if(!dont_update_text) update_text(el[i]);
		}
		search();
	}
	function clearzoom() {
		unzoom();

		// remove zoom state
		var params = get_params();
		if (params.x) delete params.x;
		if (params.y) delete params.y;
		history.replaceState(null, null, parse_params(params));
	}

	// search
	function toggle_ignorecase() {
		ignorecase = !ignorecase;
		if (ignorecase) {
			ignorecaseBtn.classList.add("show");
		} else {
			ignorecaseBtn.classList.remove("show");
		}
		reset_search();
		search();
	}
	function reset_search() {
		var el = document.querySelectorAll("#frames rect");
		for (var i = 0; i < el.length; i++) {
			orig_load(el[i], "fill")
		}
		var params = get_params();
		delete params.s;
		history.replaceState(null, null, parse_params(params));
	}
	function search_prompt() {
		if (!searching) {
			var term = prompt("Enter a search term (regexp " +
			    "allowed, eg: ^ext4_)"
			    + (ignorecase ? ", ignoring case" : "")
			    + "\nPress Ctrl-i to toggle case sensitivity", "");
			if (term != null) search(term);
		} else {
			reset_search();
			searching = 0;
			currentSearchTerm = null;
			searchbtn.classList.remove("show");
			searchbtn.firstChild.nodeValue = "Search"
			matchedtxt.classList.add("hide");
			matchedtxt.firstChild.nodeValue = ""
		}
	}
	function search(term) {
		if (term) currentSearchTerm = term;
		if (currentSearchTerm === null) return;

		var re = new RegExp(currentSearchTerm, ignorecase ? 'i' : '');
		var el = document.getElementById("frames").children;
		var matches = new Object();
		var maxwidth = 0;
		for (var i = 0; i < el.length; i++) {
			var e = el[i];
			var func = g_to_func(e);
			var rect = find_child(e, "rect");
			if (func == null || rect == null)
				continue;

			// Save max width. Only works as we have a root frame
			var w = parseFloat(rect.attributes.width.value);
			if (w > maxwidth)
				maxwidth = w;

			if (func.match(re)) {
				// highlight
				var x = parseFloat(rect.attributes.x.value);
				orig_save(rect, "fill");
				rect.attributes.fill.value = "rgb(230,0,230)";

				// remember matches
				if (matches[x] == undefined) {
					matches[x] = w;
				} else {
					if (w > matches[x]) {
						// overwrite with parent
						matches[x] = w;
					}
				}
				searching = 1;
			}
		}
		if (!searching)
			return;
		var params = get_params();
		params.s = currentSearchTerm;
		history.replaceState(null, null, parse_params(params));

		searchbtn.classList.add("show");
		searchbtn.firstChild.nodeValue = "Reset Search";

		// calculate percent matched, excluding vertical overlap
		var count = 0;
		var lastx = -1;
		var lastw = 0;
		var keys = Array();
		for (k in matches) {
			if (matches.hasOwnProperty(k))
				keys.push(k);
		}
		// sort the matched frames by their x location
		// ascending, then width descending
		keys.sort(function(a, b){
			return a - b;
		});
		// Step through frames saving only the biggest bottom-up frames
		// thanks to the sort order. This relies on the tree property
		// where children are always smaller than their parents.
		var fudge = 0.0001;	// JavaScript floating point
		for (var k in keys) {
			var x = parseFloat(keys[k]);
			var w = matches[keys[k]];
			if (x >= lastx + lastw - fudge) {
				count += w;
				lastx = x;
				lastw = w;
			}
		}
		// display matched percent
		matchedtxt.classList.remove("hide");
		var pct = 100 * count / maxwidth;
		if (pct != 100) pct = pct.toFixed(1)
		matchedtxt.firstChild.nodeValue = "Matched: " + pct + "%";
	}
]]>
</script>
<rect x="0.0" y="0" width="1200.0" height="886.0" fill="url(#background)"  />
<text id="title" x="600.00" y="24" >Flame Graph</text>
<text id="details" x="10.00" y="869" > </text>
<text id="unzoom" x="10.00" y="24" class="hide">Reset Zoom</text>
<text id="search" x="1090.00" y="24" >Search</text>
<text id="ignorecase" x="1174.00" y="24" >ic</text>
<text id="matched" x="1090.00" y="869" > </text>
<g id="frames">
<g >
<title>update_cfs_rq_load_avg (28,004 samples, 0.04%)</title><rect x="287.3" y="53" width="0.5" height="15.0" fill="rgb(205,3,0)" rx="2" ry="2" />
<text  x="290.33" y="63.5" ></text>
</g>
<g >
<title>alloc_anon_folio (33,244 samples, 0.05%)</title><rect x="11.2" y="677" width="0.5" height="15.0" fill="rgb(223,86,20)" rx="2" ry="2" />
<text  x="14.17" y="687.5" ></text>
</g>
<g >
<title>entry_SYSCALL_64_after_hwframe (29,306 samples, 0.04%)</title><rect x="10.7" y="789" width="0.5" height="15.0" fill="rgb(218,63,15)" rx="2" ry="2" />
<text  x="13.70" y="799.5" ></text>
</g>
<g >
<title>[libgallium-26.0.3-1ubuntu1.so] (197,489 samples, 0.27%)</title><rect x="286.3" y="453" width="3.2" height="15.0" fill="rgb(252,219,52)" rx="2" ry="2" />
<text  x="289.30" y="463.5" ></text>
</g>
<g >
<title>drm_ioctl_kernel (41,885 samples, 0.06%)</title><rect x="10.0" y="581" width="0.7" height="15.0" fill="rgb(226,101,24)" rx="2" ry="2" />
<text  x="13.00" y="591.5" ></text>
</g>
<g >
<title>[libGLX_mesa.so.0.0.0] (197,489 samples, 0.27%)</title><rect x="286.3" y="581" width="3.2" height="15.0" fill="rgb(229,111,26)" rx="2" ry="2" />
<text  x="289.30" y="591.5" ></text>
</g>
<g >
<title>__set_cpus_allowed_ptr_locked (169,442 samples, 0.23%)</title><rect x="286.3" y="197" width="2.7" height="15.0" fill="rgb(215,49,11)" rx="2" ry="2" />
<text  x="289.30" y="207.5" ></text>
</g>
<g >
<title>do_syscall_64 (41,885 samples, 0.06%)</title><rect x="10.0" y="661" width="0.7" height="15.0" fill="rgb(209,20,4)" rx="2" ry="2" />
<text  x="13.00" y="671.5" ></text>
</g>
<g >
<title>sprite_batcher.SpriteBatcher.initGL (14,168,341 samples, 19.35%)</title><rect x="375.7" y="629" width="228.4" height="15.0" fill="rgb(218,62,14)" rx="2" ry="2" />
<text  x="378.72" y="639.5" >sprite_batcher.SpriteBatcher.i..</text>
</g>
<g >
<title>exec_binprm (29,306 samples, 0.04%)</title><rect x="10.7" y="677" width="0.5" height="15.0" fill="rgb(244,180,43)" rx="2" ry="2" />
<text  x="13.70" y="687.5" ></text>
</g>
<g >
<title>[libglfw.so.3.4] (5,350,300 samples, 7.31%)</title><rect x="289.5" y="581" width="86.2" height="15.0" fill="rgb(208,15,3)" rx="2" ry="2" />
<text  x="292.48" y="591.5" >[libglfw.s..</text>
</g>
<g >
<title>__x64_sys_execve (29,306 samples, 0.04%)</title><rect x="10.7" y="741" width="0.5" height="15.0" fill="rgb(247,193,46)" rx="2" ry="2" />
<text  x="13.70" y="751.5" ></text>
</g>
<g >
<title>main.runGlfwDemo (73,100,230 samples, 99.85%)</title><rect x="11.7" y="661" width="1178.3" height="15.0" fill="rgb(247,193,46)" rx="2" ry="2" />
<text  x="14.70" y="671.5" >main.runGlfwDemo</text>
</g>
<g >
<title>[libGLX_mesa.so.0.0.0] (197,489 samples, 0.27%)</title><rect x="286.3" y="533" width="3.2" height="15.0" fill="rgb(229,111,26)" rx="2" ry="2" />
<text  x="289.30" y="543.5" ></text>
</g>
<g >
<title>expand_stack_locked (29,306 samples, 0.04%)</title><rect x="10.7" y="629" width="0.5" height="15.0" fill="rgb(208,15,3)" rx="2" ry="2" />
<text  x="13.70" y="639.5" ></text>
</g>
<g >
<title>map_renderer.MapRenderer.rebuild (17,035,579 samples, 23.27%)</title><rect x="11.7" y="613" width="274.6" height="15.0" fill="rgb(214,43,10)" rx="2" ry="2" />
<text  x="14.70" y="623.5" >map_renderer.MapRenderer.rebuild</text>
</g>
<g >
<title>__libc_start_call_main (73,100,230 samples, 99.85%)</title><rect x="11.7" y="757" width="1178.3" height="15.0" fill="rgb(210,26,6)" rx="2" ry="2" />
<text  x="14.70" y="767.5" >__libc_start_call_main</text>
</g>
<g >
<title>all (73,206,393 samples, 100%)</title><rect x="10.0" y="837" width="1180.0" height="15.0" fill="rgb(213,39,9)" rx="2" ry="2" />
<text  x="13.00" y="847.5" ></text>
</g>
<g >
<title>callMain (73,100,230 samples, 99.85%)</title><rect x="11.7" y="709" width="1178.3" height="15.0" fill="rgb(239,157,37)" rx="2" ry="2" />
<text  x="14.70" y="719.5" >callMain</text>
</g>
<g >
<title>do_user_addr_fault (5,254,326 samples, 7.18%)</title><rect x="519.4" y="517" width="84.7" height="15.0" fill="rgb(228,108,25)" rx="2" ry="2" />
<text  x="522.40" y="527.5" >do_user_a..</text>
</g>
<g >
<title>update_process_times (33,244 samples, 0.05%)</title><rect x="11.2" y="501" width="0.5" height="15.0" fill="rgb(250,209,50)" rx="2" ry="2" />
<text  x="14.17" y="511.5" ></text>
</g>
<g >
<title>[libGLX_mesa.so.0.0.0] (197,489 samples, 0.27%)</title><rect x="286.3" y="517" width="3.2" height="15.0" fill="rgb(229,111,26)" rx="2" ry="2" />
<text  x="289.30" y="527.5" ></text>
</g>
<g >
<title>app.App.buildAtlas (17,035,579 samples, 23.27%)</title><rect x="11.7" y="645" width="274.6" height="15.0" fill="rgb(231,121,29)" rx="2" ry="2" />
<text  x="14.70" y="655.5" >app.App.buildAtlas</text>
</g>
<g >
<title>app.App.init (7,784,613 samples, 10.63%)</title><rect x="604.1" y="645" width="125.5" height="15.0" fill="rgb(212,33,7)" rx="2" ry="2" />
<text  x="607.10" y="655.5" >app.App.init</text>
</g>
<g >
<title>__check_object_size (13,363 samples, 0.02%)</title><rect x="10.0" y="501" width="0.2" height="15.0" fill="rgb(226,98,23)" rx="2" ry="2" />
<text  x="13.00" y="511.5" ></text>
</g>
<g >
<title>propagate_entity_load_avg (25,832 samples, 0.04%)</title><rect x="288.2" y="101" width="0.4" height="15.0" fill="rgb(238,153,36)" rx="2" ry="2" />
<text  x="291.19" y="111.5" ></text>
</g>
<g >
<title>__clone3 (42,749 samples, 0.06%)</title><rect x="10.0" y="805" width="0.7" height="15.0" fill="rgb(239,158,37)" rx="2" ry="2" />
<text  x="13.00" y="815.5" ></text>
</g>
<g >
<title>do_execveat_common.isra.0 (29,306 samples, 0.04%)</title><rect x="10.7" y="725" width="0.5" height="15.0" fill="rgb(231,123,29)" rx="2" ry="2" />
<text  x="13.70" y="735.5" ></text>
</g>
<g >
<title>entry_SYSCALL_64_after_hwframe (41,885 samples, 0.06%)</title><rect x="10.0" y="677" width="0.7" height="15.0" fill="rgb(218,63,15)" rx="2" ry="2" />
<text  x="13.00" y="687.5" ></text>
</g>
<g >
<title>[libgallium-26.0.3-1ubuntu1.so] (42,749 samples, 0.06%)</title><rect x="10.0" y="773" width="0.7" height="15.0" fill="rgb(252,219,52)" rx="2" ry="2" />
<text  x="13.00" y="783.5" ></text>
</g>
<g >
<title>map_renderer.heightAtWrapped (17,035,579 samples, 23.27%)</title><rect x="11.7" y="597" width="274.6" height="15.0" fill="rgb(246,190,45)" rx="2" ry="2" />
<text  x="14.70" y="607.5" >map_renderer.heightAtWrapped</text>
</g>
<g >
<title>Noise.fbm_perlin2d (7,784,613 samples, 10.63%)</title><rect x="604.1" y="597" width="125.5" height="15.0" fill="rgb(244,180,43)" rx="2" ry="2" />
<text  x="607.10" y="607.5" >Noise.fbm_perli..</text>
</g>
<g >
<title>handle_mm_fault (5,254,326 samples, 7.18%)</title><rect x="519.4" y="501" width="84.7" height="15.0" fill="rgb(234,135,32)" rx="2" ry="2" />
<text  x="522.40" y="511.5" >handle_mm..</text>
</g>
<g >
<title>call_init (73,100,230 samples, 99.85%)</title><rect x="11.7" y="773" width="1178.3" height="15.0" fill="rgb(221,77,18)" rx="2" ry="2" />
<text  x="14.70" y="783.5" >call_init</text>
</g>
<g >
<title>amdgpu_bo_create_list_entry_array (13,363 samples, 0.02%)</title><rect x="10.0" y="533" width="0.2" height="15.0" fill="rgb(210,24,5)" rx="2" ry="2" />
<text  x="13.00" y="543.5" ></text>
</g>
<g >
<title>kfree (28,047 samples, 0.04%)</title><rect x="289.0" y="229" width="0.5" height="15.0" fill="rgb(222,78,18)" rx="2" ry="2" />
<text  x="292.03" y="239.5" ></text>
</g>
<g >
<title>load_elf_binary (29,306 samples, 0.04%)</title><rect x="10.7" y="661" width="0.5" height="15.0" fill="rgb(223,83,20)" rx="2" ry="2" />
<text  x="13.70" y="671.5" ></text>
</g>
<g >
<title>__sysvec_apic_timer_interrupt (33,244 samples, 0.05%)</title><rect x="11.2" y="565" width="0.5" height="15.0" fill="rgb(242,173,41)" rx="2" ry="2" />
<text  x="14.17" y="575.5" ></text>
</g>
<g >
<title>__handle_mm_fault (33,244 samples, 0.05%)</title><rect x="11.2" y="725" width="0.5" height="15.0" fill="rgb(207,9,2)" rx="2" ry="2" />
<text  x="14.17" y="735.5" ></text>
</g>
<g >
<title>[libgallium-26.0.3-1ubuntu1.so] (42,749 samples, 0.06%)</title><rect x="10.0" y="757" width="0.7" height="15.0" fill="rgb(252,219,52)" rx="2" ry="2" />
<text  x="13.00" y="767.5" ></text>
</g>
<g >
<title>sysvec_apic_timer_interrupt (33,244 samples, 0.05%)</title><rect x="11.2" y="581" width="0.5" height="15.0" fill="rgb(220,69,16)" rx="2" ry="2" />
<text  x="14.17" y="591.5" ></text>
</g>
<g >
<title>amdgpu_bo_list_create (28,090 samples, 0.04%)</title><rect x="10.2" y="533" width="0.5" height="15.0" fill="rgb(225,96,23)" rx="2" ry="2" />
<text  x="13.22" y="543.5" ></text>
</g>
<g >
<title>glfwCreateWindow (5,547,789 samples, 7.58%)</title><rect x="286.3" y="613" width="89.4" height="15.0" fill="rgb(240,161,38)" rx="2" ry="2" />
<text  x="289.30" y="623.5" >glfwCreate..</text>
</g>
<g >
<title>___pthread_once (197,489 samples, 0.27%)</title><rect x="286.3" y="389" width="3.2" height="15.0" fill="rgb(233,128,30)" rx="2" ry="2" />
<text  x="289.30" y="399.5" ></text>
</g>
<g >
<title>do_syscall_64 (29,306 samples, 0.04%)</title><rect x="10.7" y="773" width="0.5" height="15.0" fill="rgb(209,20,4)" rx="2" ry="2" />
<text  x="13.70" y="783.5" ></text>
</g>
<g >
<title>dequeue_entities (51,377 samples, 0.07%)</title><rect x="287.8" y="133" width="0.8" height="15.0" fill="rgb(241,166,39)" rx="2" ry="2" />
<text  x="290.78" y="143.5" ></text>
</g>
<g >
<title>expand_downwards (29,306 samples, 0.04%)</title><rect x="10.7" y="613" width="0.5" height="15.0" fill="rgb(252,218,52)" rx="2" ry="2" />
<text  x="13.70" y="623.5" ></text>
</g>
<g >
<title>dequeue_task_fair (51,377 samples, 0.07%)</title><rect x="287.8" y="149" width="0.8" height="15.0" fill="rgb(230,119,28)" rx="2" ry="2" />
<text  x="290.78" y="159.5" ></text>
</g>
<g >
<title>put_prev_entity (28,004 samples, 0.04%)</title><rect x="287.3" y="69" width="0.5" height="15.0" fill="rgb(211,28,6)" rx="2" ry="2" />
<text  x="290.33" y="79.5" ></text>
</g>
<g >
<title>__schedule (92,123 samples, 0.13%)</title><rect x="286.3" y="133" width="1.5" height="15.0" fill="rgb(227,103,24)" rx="2" ry="2" />
<text  x="289.30" y="143.5" ></text>
</g>
<g >
<title>propagate_entity_load_avg (29,777 samples, 0.04%)</title><rect x="286.9" y="69" width="0.4" height="15.0" fill="rgb(238,153,36)" rx="2" ry="2" />
<text  x="289.85" y="79.5" ></text>
</g>
<g >
<title>dequeue_task (51,377 samples, 0.07%)</title><rect x="287.8" y="165" width="0.8" height="15.0" fill="rgb(244,183,43)" rx="2" ry="2" />
<text  x="290.78" y="175.5" ></text>
</g>
<g >
<title>Map.Map.wrapY (17,035,579 samples, 23.27%)</title><rect x="11.7" y="565" width="274.6" height="15.0" fill="rgb(243,179,42)" rx="2" ry="2" />
<text  x="14.70" y="575.5" >Map.Map.wrapY</text>
</g>
<g >
<title>app.App.createWindow (19,716,130 samples, 26.93%)</title><rect x="286.3" y="645" width="317.8" height="15.0" fill="rgb(239,157,37)" rx="2" ry="2" />
<text  x="289.30" y="655.5" >app.App.createWindow</text>
</g>
<g >
<title>main (73,100,230 samples, 99.85%)</title><rect x="11.7" y="741" width="1178.3" height="15.0" fill="rgb(243,179,42)" rx="2" ry="2" />
<text  x="14.70" y="751.5" >main</text>
</g>
<g >
<title>__update_load_avg_cfs_rq (28,004 samples, 0.04%)</title><rect x="287.3" y="37" width="0.5" height="15.0" fill="rgb(228,107,25)" rx="2" ry="2" />
<text  x="290.33" y="47.5" ></text>
</g>
<g >
<title>[libgallium-26.0.3-1ubuntu1.so] (197,489 samples, 0.27%)</title><rect x="286.3" y="469" width="3.2" height="15.0" fill="rgb(252,219,52)" rx="2" ry="2" />
<text  x="289.30" y="479.5" ></text>
</g>
<g >
<title>affine_move_task (92,123 samples, 0.13%)</title><rect x="286.3" y="181" width="1.5" height="15.0" fill="rgb(254,227,54)" rx="2" ry="2" />
<text  x="289.30" y="191.5" ></text>
</g>
<g >
<title>nohz_balancer_kick (33,244 samples, 0.05%)</title><rect x="11.2" y="453" width="0.5" height="15.0" fill="rgb(225,93,22)" rx="2" ry="2" />
<text  x="14.17" y="463.5" ></text>
</g>
<g >
<title>[libGLX_mesa.so.0.0.0] (5,350,300 samples, 7.31%)</title><rect x="289.5" y="549" width="86.2" height="15.0" fill="rgb(229,111,26)" rx="2" ry="2" />
<text  x="292.48" y="559.5" >[libGLX_me..</text>
</g>
<g >
<title>do_anonymous_page (33,244 samples, 0.05%)</title><rect x="11.2" y="693" width="0.5" height="15.0" fill="rgb(238,155,37)" rx="2" ry="2" />
<text  x="14.17" y="703.5" ></text>
</g>
<g >
<title>__pthread_setaffinity_new (197,489 samples, 0.27%)</title><rect x="286.3" y="325" width="3.2" height="15.0" fill="rgb(233,131,31)" rx="2" ry="2" />
<text  x="289.30" y="335.5" ></text>
</g>
<g >
<title>[libgallium-26.0.3-1ubuntu1.so] (42,749 samples, 0.06%)</title><rect x="10.0" y="741" width="0.7" height="15.0" fill="rgb(252,219,52)" rx="2" ry="2" />
<text  x="13.00" y="751.5" ></text>
</g>
<g >
<title>sort (28,090 samples, 0.04%)</title><rect x="10.2" y="517" width="0.5" height="15.0" fill="rgb(217,59,14)" rx="2" ry="2" />
<text  x="13.22" y="527.5" ></text>
</g>
<g >
<title>amdgpu_cs_ioctl (41,885 samples, 0.06%)</title><rect x="10.0" y="565" width="0.7" height="15.0" fill="rgb(250,209,50)" rx="2" ry="2" />
<text  x="13.00" y="575.5" ></text>
</g>
<g >
<title>bprm_execve.part.0 (29,306 samples, 0.04%)</title><rect x="10.7" y="693" width="0.5" height="15.0" fill="rgb(228,106,25)" rx="2" ry="2" />
<text  x="13.70" y="703.5" ></text>
</g>
<g >
<title>__irqentry_text_end (8,914,015 samples, 12.18%)</title><rect x="375.7" y="549" width="143.7" height="15.0" fill="rgb(248,199,47)" rx="2" ry="2" />
<text  x="378.72" y="559.5" >__irqentry_text_end</text>
</g>
<g >
<title>culling.TileIter.next (28,563,908 samples, 39.02%)</title><rect x="729.6" y="613" width="460.4" height="15.0" fill="rgb(205,4,1)" rx="2" ry="2" />
<text  x="732.58" y="623.5" >culling.TileIter.next</text>
</g>
<g >
<title>sched_balance_trigger (33,244 samples, 0.05%)</title><rect x="11.2" y="469" width="0.5" height="15.0" fill="rgb(213,38,9)" rx="2" ry="2" />
<text  x="14.17" y="479.5" ></text>
</g>
<g >
<title>__hrtimer_run_queues (33,244 samples, 0.05%)</title><rect x="11.2" y="533" width="0.5" height="15.0" fill="rgb(237,150,35)" rx="2" ry="2" />
<text  x="14.17" y="543.5" ></text>
</g>
<g >
<title>glfw.createWindow (5,547,789 samples, 7.58%)</title><rect x="286.3" y="629" width="89.4" height="15.0" fill="rgb(236,143,34)" rx="2" ry="2" />
<text  x="289.30" y="639.5" >glfw.creat..</text>
</g>
<g >
<title>drm_ioctl (41,885 samples, 0.06%)</title><rect x="10.0" y="597" width="0.7" height="15.0" fill="rgb(231,121,29)" rx="2" ry="2" />
<text  x="13.00" y="607.5" ></text>
</g>
<g >
<title>amdgpu_cs_pass1 (41,885 samples, 0.06%)</title><rect x="10.0" y="549" width="0.7" height="15.0" fill="rgb(229,114,27)" rx="2" ry="2" />
<text  x="13.00" y="559.5" ></text>
</g>
<g >
<title>[libgallium-26.0.3-1ubuntu1.so] (41,885 samples, 0.06%)</title><rect x="10.0" y="725" width="0.7" height="15.0" fill="rgb(252,219,52)" rx="2" ry="2" />
<text  x="13.00" y="735.5" ></text>
</g>
<g >
<title>mem.Allocator.alloc__anon_32359 (14,168,341 samples, 19.35%)</title><rect x="375.7" y="613" width="228.4" height="15.0" fill="rgb(230,116,27)" rx="2" ry="2" />
<text  x="378.72" y="623.5" >mem.Allocator.alloc__anon_32359</text>
</g>
<g >
<title>check_heap_object (13,363 samples, 0.02%)</title><rect x="10.0" y="485" width="0.2" height="15.0" fill="rgb(241,165,39)" rx="2" ry="2" />
<text  x="13.00" y="495.5" ></text>
</g>
<g >
<title>Game.Game.init (7,784,613 samples, 10.63%)</title><rect x="604.1" y="629" width="125.5" height="15.0" fill="rgb(219,64,15)" rx="2" ry="2" />
<text  x="607.10" y="639.5" >Game.Game.init</text>
</g>
<g >
<title>callMainWithArgs (73,100,230 samples, 99.85%)</title><rect x="11.7" y="725" width="1178.3" height="15.0" fill="rgb(213,37,8)" rx="2" ry="2" />
<text  x="14.70" y="735.5" >callMainWithArgs</text>
</g>
<g >
<title>[libGLX_mesa.so.0.0.0] (197,489 samples, 0.27%)</title><rect x="286.3" y="565" width="3.2" height="15.0" fill="rgb(229,111,26)" rx="2" ry="2" />
<text  x="289.30" y="575.5" ></text>
</g>
<g >
<title>vma_alloc_folio_noprof (33,244 samples, 0.05%)</title><rect x="11.2" y="661" width="0.5" height="15.0" fill="rgb(218,61,14)" rx="2" ry="2" />
<text  x="14.17" y="671.5" ></text>
</g>
<g >
<title>tick_nohz_handler (33,244 samples, 0.05%)</title><rect x="11.2" y="517" width="0.5" height="15.0" fill="rgb(248,200,48)" rx="2" ry="2" />
<text  x="14.17" y="527.5" ></text>
</g>
<g >
<title>main.main (73,100,230 samples, 99.85%)</title><rect x="11.7" y="677" width="1178.3" height="15.0" fill="rgb(227,101,24)" rx="2" ry="2" />
<text  x="14.70" y="687.5" >main.main</text>
</g>
<g >
<title>__x64_sys_sched_setaffinity (197,489 samples, 0.27%)</title><rect x="286.3" y="261" width="3.2" height="15.0" fill="rgb(227,104,25)" rx="2" ry="2" />
<text  x="289.30" y="271.5" ></text>
</g>
<g >
<title>put_prev_task_fair (57,781 samples, 0.08%)</title><rect x="286.9" y="85" width="0.9" height="15.0" fill="rgb(208,17,4)" rx="2" ry="2" />
<text  x="289.85" y="95.5" ></text>
</g>
<g >
<title>Noise.perlin2d (7,784,613 samples, 10.63%)</title><rect x="604.1" y="581" width="125.5" height="15.0" fill="rgb(253,225,53)" rx="2" ry="2" />
<text  x="607.10" y="591.5" >Noise.perlin2d</text>
</g>
<g >
<title>alloc_pages_mpol (33,244 samples, 0.05%)</title><rect x="11.2" y="645" width="0.5" height="15.0" fill="rgb(254,227,54)" rx="2" ry="2" />
<text  x="14.17" y="655.5" ></text>
</g>
<g >
<title>[unknown] (29,738 samples, 0.04%)</title><rect x="10.7" y="805" width="0.5" height="15.0" fill="rgb(210,24,5)" rx="2" ry="2" />
<text  x="13.69" y="815.5" ></text>
</g>
<g >
<title>sched_tick (33,244 samples, 0.05%)</title><rect x="11.2" y="485" width="0.5" height="15.0" fill="rgb(238,155,37)" rx="2" ry="2" />
<text  x="14.17" y="495.5" ></text>
</g>
<g >
<title>pick_next_task (57,781 samples, 0.08%)</title><rect x="286.9" y="117" width="0.9" height="15.0" fill="rgb(206,4,1)" rx="2" ry="2" />
<text  x="289.85" y="127.5" ></text>
</g>
<g >
<title>handle_mm_fault (33,244 samples, 0.05%)</title><rect x="11.2" y="741" width="0.5" height="15.0" fill="rgb(234,135,32)" rx="2" ry="2" />
<text  x="14.17" y="751.5" ></text>
</g>
<g >
<title>[libgallium-26.0.3-1ubuntu1.so] (197,489 samples, 0.27%)</title><rect x="286.3" y="485" width="3.2" height="15.0" fill="rgb(252,219,52)" rx="2" ry="2" />
<text  x="289.30" y="495.5" ></text>
</g>
<g >
<title>amdgpu_drm_ioctl (41,885 samples, 0.06%)</title><rect x="10.0" y="613" width="0.7" height="15.0" fill="rgb(246,190,45)" rx="2" ry="2" />
<text  x="13.00" y="623.5" ></text>
</g>
<g >
<title>preempt_schedule_thunk (92,123 samples, 0.13%)</title><rect x="286.3" y="165" width="1.5" height="15.0" fill="rgb(206,9,2)" rx="2" ry="2" />
<text  x="289.30" y="175.5" ></text>
</g>
<g >
<title>dequeue_entity (25,832 samples, 0.04%)</title><rect x="288.2" y="117" width="0.4" height="15.0" fill="rgb(233,130,31)" rx="2" ry="2" />
<text  x="291.19" y="127.5" ></text>
</g>
<g >
<title>perf_event_mmap_event (29,306 samples, 0.04%)</title><rect x="10.7" y="581" width="0.5" height="15.0" fill="rgb(238,154,36)" rx="2" ry="2" />
<text  x="13.70" y="591.5" ></text>
</g>
<g >
<title>[libglfw.so.3.4] (5,350,300 samples, 7.31%)</title><rect x="289.5" y="565" width="86.2" height="15.0" fill="rgb(208,15,3)" rx="2" ry="2" />
<text  x="292.48" y="575.5" >[libglfw.s..</text>
</g>
<g >
<title>mem.Allocator.allocWithSizeAndAlignment__anon_39795 (14,168,341 samples, 19.35%)</title><rect x="375.7" y="581" width="228.4" height="15.0" fill="rgb(228,106,25)" rx="2" ry="2" />
<text  x="378.72" y="591.5" >mem.Allocator.allocWithSizeAnd..</text>
</g>
<g >
<title>__set_cpus_allowed_ptr (169,442 samples, 0.23%)</title><rect x="286.3" y="213" width="2.7" height="15.0" fill="rgb(223,83,20)" rx="2" ry="2" />
<text  x="289.30" y="223.5" ></text>
</g>
<g >
<title>[libGLX_mesa.so.0.0.0] (197,489 samples, 0.27%)</title><rect x="286.3" y="549" width="3.2" height="15.0" fill="rgb(229,111,26)" rx="2" ry="2" />
<text  x="289.30" y="559.5" ></text>
</g>
<g >
<title>amdgpu_winsys_create (197,489 samples, 0.27%)</title><rect x="286.3" y="437" width="3.2" height="15.0" fill="rgb(232,128,30)" rx="2" ry="2" />
<text  x="289.30" y="447.5" ></text>
</g>
<g >
<title>[libglfw.so.3.4] (5,547,789 samples, 7.58%)</title><rect x="286.3" y="597" width="89.4" height="15.0" fill="rgb(208,15,3)" rx="2" ry="2" />
<text  x="289.30" y="607.5" >[libglfw.s..</text>
</g>
<g >
<title>vmemdup_user (13,363 samples, 0.02%)</title><rect x="10.0" y="517" width="0.2" height="15.0" fill="rgb(214,41,9)" rx="2" ry="2" />
<text  x="13.00" y="527.5" ></text>
</g>
<g >
<title>_start (73,100,230 samples, 99.85%)</title><rect x="11.7" y="805" width="1178.3" height="15.0" fill="rgb(245,185,44)" rx="2" ry="2" />
<text  x="14.70" y="815.5" >_start</text>
</g>
<g >
<title>asm_exc_page_fault (33,244 samples, 0.05%)</title><rect x="11.2" y="789" width="0.5" height="15.0" fill="rgb(225,93,22)" rx="2" ry="2" />
<text  x="14.17" y="799.5" ></text>
</g>
<g >
<title>setup_arg_pages (29,306 samples, 0.04%)</title><rect x="10.7" y="645" width="0.5" height="15.0" fill="rgb(222,82,19)" rx="2" ry="2" />
<text  x="13.70" y="655.5" ></text>
</g>
<g >
<title>preempt_schedule (92,123 samples, 0.13%)</title><rect x="286.3" y="149" width="1.5" height="15.0" fill="rgb(249,204,48)" rx="2" ry="2" />
<text  x="289.30" y="159.5" ></text>
</g>
<g >
<title>[libgallium-26.0.3-1ubuntu1.so] (41,885 samples, 0.06%)</title><rect x="10.0" y="709" width="0.7" height="15.0" fill="rgb(252,219,52)" rx="2" ry="2" />
<text  x="13.00" y="719.5" ></text>
</g>
<g >
<title>[libgallium-26.0.3-1ubuntu1.so] (197,489 samples, 0.27%)</title><rect x="286.3" y="405" width="3.2" height="15.0" fill="rgb(252,219,52)" rx="2" ry="2" />
<text  x="289.30" y="415.5" ></text>
</g>
<g >
<title>__ioctl (41,885 samples, 0.06%)</title><rect x="10.0" y="693" width="0.7" height="15.0" fill="rgb(254,226,54)" rx="2" ry="2" />
<text  x="13.00" y="703.5" ></text>
</g>
<g >
<title>Map.Map.generateTerrain (7,784,613 samples, 10.63%)</title><rect x="604.1" y="613" width="125.5" height="15.0" fill="rgb(245,184,44)" rx="2" ry="2" />
<text  x="607.10" y="623.5" >Map.Map.generat..</text>
</g>
<g >
<title>[libgallium-26.0.3-1ubuntu1.so] (197,489 samples, 0.27%)</title><rect x="286.3" y="341" width="3.2" height="15.0" fill="rgb(252,219,52)" rx="2" ry="2" />
<text  x="289.30" y="351.5" ></text>
</g>
<g >
<title>__libc_start_main_impl (73,100,230 samples, 99.85%)</title><rect x="11.7" y="789" width="1178.3" height="15.0" fill="rgb(218,63,15)" rx="2" ry="2" />
<text  x="14.70" y="799.5" >__libc_start_main_impl</text>
</g>
<g >
<title>start_thread (42,749 samples, 0.06%)</title><rect x="10.0" y="789" width="0.7" height="15.0" fill="rgb(212,34,8)" rx="2" ry="2" />
<text  x="13.00" y="799.5" ></text>
</g>
<g >
<title>x64_sys_call (41,885 samples, 0.06%)</title><rect x="10.0" y="645" width="0.7" height="15.0" fill="rgb(247,194,46)" rx="2" ry="2" />
<text  x="13.00" y="655.5" ></text>
</g>
<g >
<title>__next_zones_zonelist (33,244 samples, 0.05%)</title><rect x="11.2" y="613" width="0.5" height="15.0" fill="rgb(223,86,20)" rx="2" ry="2" />
<text  x="14.17" y="623.5" ></text>
</g>
<g >
<title>__clone3 (33,244 samples, 0.05%)</title><rect x="11.2" y="805" width="0.5" height="15.0" fill="rgb(239,158,37)" rx="2" ry="2" />
<text  x="14.17" y="815.5" ></text>
</g>
<g >
<title>asm_exc_page_fault (5,254,326 samples, 7.18%)</title><rect x="519.4" y="549" width="84.7" height="15.0" fill="rgb(225,93,22)" rx="2" ry="2" />
<text  x="522.40" y="559.5" >asm_exc_p..</text>
</g>
<g >
<title>[libgallium-26.0.3-1ubuntu1.so] (197,489 samples, 0.27%)</title><rect x="286.3" y="357" width="3.2" height="15.0" fill="rgb(252,219,52)" rx="2" ry="2" />
<text  x="289.30" y="367.5" ></text>
</g>
<g >
<title>exc_page_fault (33,244 samples, 0.05%)</title><rect x="11.2" y="773" width="0.5" height="15.0" fill="rgb(212,35,8)" rx="2" ry="2" />
<text  x="14.17" y="783.5" ></text>
</g>
<g >
<title>__x64_sys_ioctl (41,885 samples, 0.06%)</title><rect x="10.0" y="629" width="0.7" height="15.0" fill="rgb(249,204,49)" rx="2" ry="2" />
<text  x="13.00" y="639.5" ></text>
</g>
<g >
<title>do_user_addr_fault (33,244 samples, 0.05%)</title><rect x="11.2" y="757" width="0.5" height="15.0" fill="rgb(228,108,25)" rx="2" ry="2" />
<text  x="14.17" y="767.5" ></text>
</g>
<g >
<title>bprm_execve (29,306 samples, 0.04%)</title><rect x="10.7" y="709" width="0.5" height="15.0" fill="rgb(218,61,14)" rx="2" ry="2" />
<text  x="13.70" y="719.5" ></text>
</g>
<g >
<title>app.App.renderRoads (28,563,908 samples, 39.02%)</title><rect x="729.6" y="629" width="460.4" height="15.0" fill="rgb(232,124,29)" rx="2" ry="2" />
<text  x="732.58" y="639.5" >app.App.renderRoads</text>
</g>
<g >
<title>x64_sys_call (197,489 samples, 0.27%)</title><rect x="286.3" y="277" width="3.2" height="15.0" fill="rgb(247,194,46)" rx="2" ry="2" />
<text  x="289.30" y="287.5" ></text>
</g>
<g >
<title>app.App.run (28,563,908 samples, 39.02%)</title><rect x="729.6" y="645" width="460.4" height="15.0" fill="rgb(225,96,22)" rx="2" ry="2" />
<text  x="732.58" y="655.5" >app.App.run</text>
</g>
<g >
<title>hrtimer_interrupt (33,244 samples, 0.05%)</title><rect x="11.2" y="549" width="0.5" height="15.0" fill="rgb(228,109,26)" rx="2" ry="2" />
<text  x="14.17" y="559.5" ></text>
</g>
<g >
<title>perf_event_mmap (29,306 samples, 0.04%)</title><rect x="10.7" y="597" width="0.5" height="15.0" fill="rgb(229,112,26)" rx="2" ry="2" />
<text  x="13.70" y="607.5" ></text>
</g>
<g >
<title>sched_setaffinity (197,489 samples, 0.27%)</title><rect x="286.3" y="245" width="3.2" height="15.0" fill="rgb(209,22,5)" rx="2" ry="2" />
<text  x="289.30" y="255.5" ></text>
</g>
<g >
<title>__pick_next_task.part.0 (57,781 samples, 0.08%)</title><rect x="286.9" y="101" width="0.9" height="15.0" fill="rgb(238,153,36)" rx="2" ry="2" />
<text  x="289.85" y="111.5" ></text>
</g>
<g >
<title>__alloc_frozen_pages_noprof (33,244 samples, 0.05%)</title><rect x="11.2" y="629" width="0.5" height="15.0" fill="rgb(228,109,26)" rx="2" ry="2" />
<text  x="14.17" y="639.5" ></text>
</g>
<g >
<title>handle_pte_fault (33,244 samples, 0.05%)</title><rect x="11.2" y="709" width="0.5" height="15.0" fill="rgb(217,57,13)" rx="2" ry="2" />
<text  x="14.17" y="719.5" ></text>
</g>
<g >
<title>Map.Map.getTileWrapped (17,035,579 samples, 23.27%)</title><rect x="11.7" y="581" width="274.6" height="15.0" fill="rgb(215,48,11)" rx="2" ry="2" />
<text  x="14.70" y="591.5" >Map.Map.getTileWrapped</text>
</g>
<g >
<title>set_cpus_allowed_common (25,942 samples, 0.04%)</title><rect x="288.6" y="181" width="0.4" height="15.0" fill="rgb(217,57,13)" rx="2" ry="2" />
<text  x="291.61" y="191.5" ></text>
</g>
<g >
<title>wrapMain (73,100,230 samples, 99.85%)</title><rect x="11.7" y="693" width="1178.3" height="15.0" fill="rgb(245,185,44)" rx="2" ry="2" />
<text  x="14.70" y="703.5" >wrapMain</text>
</g>
<g >
<title>driCreateNewScreen3 (197,489 samples, 0.27%)</title><rect x="286.3" y="501" width="3.2" height="15.0" fill="rgb(220,71,17)" rx="2" ry="2" />
<text  x="289.30" y="511.5" ></text>
</g>
<g >
<title>exc_page_fault (5,254,326 samples, 7.18%)</title><rect x="519.4" y="533" width="84.7" height="15.0" fill="rgb(212,35,8)" rx="2" ry="2" />
<text  x="522.40" y="543.5" >exc_page_..</text>
</g>
<g >
<title>sched_change_begin (51,377 samples, 0.07%)</title><rect x="287.8" y="181" width="0.8" height="15.0" fill="rgb(227,102,24)" rx="2" ry="2" />
<text  x="290.78" y="191.5" ></text>
</g>
<g >
<title>mem.Allocator.allocBytesAligned__anon_39807 (14,168,341 samples, 19.35%)</title><rect x="375.7" y="565" width="228.4" height="15.0" fill="rgb(225,92,22)" rx="2" ry="2" />
<text  x="378.72" y="575.5" >mem.Allocator.allocBytesAligne..</text>
</g>
<g >
<title>__sched_setaffinity (169,442 samples, 0.23%)</title><rect x="286.3" y="229" width="2.7" height="15.0" fill="rgb(232,126,30)" rx="2" ry="2" />
<text  x="289.30" y="239.5" ></text>
</g>
<g >
<title>allocAdvancedWithRetAddr (14,168,341 samples, 19.35%)</title><rect x="375.7" y="597" width="228.4" height="15.0" fill="rgb(240,163,38)" rx="2" ry="2" />
<text  x="378.72" y="607.5" >allocAdvancedWithRetAddr</text>
</g>
<g >
<title>Noise.Permutation.grad (7,784,613 samples, 10.63%)</title><rect x="604.1" y="565" width="125.5" height="15.0" fill="rgb(253,222,53)" rx="2" ry="2" />
<text  x="607.10" y="575.5" >Noise.Permutati..</text>
</g>
<g >
<title>[libgallium-26.0.3-1ubuntu1.so] (197,489 samples, 0.27%)</title><rect x="286.3" y="421" width="3.2" height="15.0" fill="rgb(252,219,52)" rx="2" ry="2" />
<text  x="289.30" y="431.5" ></text>
</g>
<g >
<title>freeserf (73,163,212 samples, 99.94%)</title><rect x="10.7" y="821" width="1179.3" height="15.0" fill="rgb(222,81,19)" rx="2" ry="2" />
<text  x="13.69" y="831.5" >freeserf</text>
</g>
<g >
<title>freeserf:cs0 (42,749 samples, 0.06%)</title><rect x="10.0" y="821" width="0.7" height="15.0" fill="rgb(205,2,0)" rx="2" ry="2" />
<text  x="13.00" y="831.5" ></text>
</g>
<g >
<title>map_renderer.MapRenderer.rebuildWithAtlas (17,035,579 samples, 23.27%)</title><rect x="11.7" y="629" width="274.6" height="15.0" fill="rgb(216,52,12)" rx="2" ry="2" />
<text  x="14.70" y="639.5" >map_renderer.MapRenderer.rebuildWith..</text>
</g>
<g >
<title>asm_sysvec_apic_timer_interrupt (33,244 samples, 0.05%)</title><rect x="11.2" y="597" width="0.5" height="15.0" fill="rgb(232,127,30)" rx="2" ry="2" />
<text  x="14.17" y="607.5" ></text>
</g>
<g >
<title>__pthread_once_slow (197,489 samples, 0.27%)</title><rect x="286.3" y="373" width="3.2" height="15.0" fill="rgb(206,7,1)" rx="2" ry="2" />
<text  x="289.30" y="383.5" ></text>
</g>
<g >
<title>perf_iterate_ctx (29,306 samples, 0.04%)</title><rect x="10.7" y="549" width="0.5" height="15.0" fill="rgb(205,4,0)" rx="2" ry="2" />
<text  x="13.70" y="559.5" ></text>
</g>
<g >
<title>x64_sys_call (29,306 samples, 0.04%)</title><rect x="10.7" y="757" width="0.5" height="15.0" fill="rgb(247,194,46)" rx="2" ry="2" />
<text  x="13.70" y="767.5" ></text>
</g>
<g >
<title>entry_SYSCALL_64_after_hwframe (197,489 samples, 0.27%)</title><rect x="286.3" y="309" width="3.2" height="15.0" fill="rgb(218,63,15)" rx="2" ry="2" />
<text  x="289.30" y="319.5" ></text>
</g>
<g >
<title>do_syscall_64 (197,489 samples, 0.27%)</title><rect x="286.3" y="293" width="3.2" height="15.0" fill="rgb(209,20,4)" rx="2" ry="2" />
<text  x="289.30" y="303.5" ></text>
</g>
<g >
<title>__sort_r (28,090 samples, 0.04%)</title><rect x="10.2" y="501" width="0.5" height="15.0" fill="rgb(240,162,38)" rx="2" ry="2" />
<text  x="13.22" y="511.5" ></text>
</g>
<g >
<title>perf_iterate_sb.constprop.0 (29,306 samples, 0.04%)</title><rect x="10.7" y="565" width="0.5" height="15.0" fill="rgb(229,113,27)" rx="2" ry="2" />
<text  x="13.70" y="575.5" ></text>
</g>
</g>
</svg>
